<svg width="24" height="24" viewBox="0 0 24 24" fill="none" xmlns="http://www.w3.org/2000/svg">
<path d="M8.89356 11.72C9.61387 13.2075 10.8167 14.4073 12.3061 15.1238C12.4159 15.1758 12.5374 15.1983 12.6586 15.1891C12.7798 15.1799 12.8966 15.1393 12.9973 15.0713L15.1848 13.61C15.2815 13.5445 15.3931 13.5045 15.5094 13.4938C15.6257 13.4831 15.7428 13.502 15.8498 13.5488L19.9448 15.3075C20.0848 15.3658 20.2017 15.4684 20.2776 15.5997C20.3535 15.7309 20.3841 15.8834 20.3648 16.0338C20.235 17.0468 19.7406 17.9778 18.9739 18.6526C18.2073 19.3274 17.2211 19.6998 16.1998 19.7C13.0437 19.7 10.0169 18.4463 7.78523 16.2146C5.55355 13.9829 4.2998 10.9561 4.2998 7.80003C4.30003 6.77873 4.67239 5.7925 5.3472 5.02589C6.02201 4.25928 6.95303 3.76482 7.96606 3.63503C8.11641 3.61571 8.26895 3.64636 8.40018 3.72226C8.53141 3.79815 8.63405 3.91507 8.69231 4.05503L10.4511 8.15878C10.4968 8.26408 10.5159 8.37902 10.5068 8.49346C10.4976 8.6079 10.4605 8.71834 10.3986 8.81503L8.93731 11.0375C8.87225 11.1381 8.83407 11.2536 8.82641 11.3731C8.81875 11.4926 8.84187 11.612 8.89356 11.72Z" stroke="#FDFEFF" stroke-width="1.6" stroke-linecap="round" stroke-linejoin="round"/>
</svg>
