<svg width="22" height="22" viewBox="0 0 22 22" fill="none" xmlns="http://www.w3.org/2000/svg">
<path d="M15.2168 12.8333C15.0335 12.7417 13.8418 12.1917 13.6585 12.1C13.4752 12.0083 13.2918 12.0083 13.1085 12.1917C12.9252 12.375 12.5585 12.925 12.3752 13.1083C12.2835 13.2917 12.1002 13.2917 11.9168 13.2C11.2752 12.925 10.6335 12.5583 10.0835 12.1C9.62516 11.6417 9.16683 11.0917 8.80016 10.5417C8.7085 10.3583 8.80016 10.175 8.89183 10.0833C8.9835 9.99167 9.07516 9.80834 9.2585 9.71667C9.35016 9.62501 9.44183 9.44167 9.44183 9.35001C9.5335 9.25834 9.5335 9.07501 9.44183 8.98334C9.35016 8.89167 8.89183 7.79167 8.7085 7.33334C8.61683 6.69167 8.4335 6.69167 8.25016 6.69167C8.1585 6.69167 7.97516 6.69167 7.79183 6.69167C7.6085 6.69167 7.3335 6.87501 7.24183 6.96667C6.69183 7.51667 6.41683 8.15834 6.41683 8.89167C6.5085 9.71667 6.7835 10.5417 7.3335 11.275C8.34183 12.7417 9.62516 13.9333 11.1835 14.6667C11.6418 14.85 12.0085 15.0333 12.4668 15.125C12.9252 15.3083 13.3835 15.3083 13.9335 15.2167C14.5752 15.125 15.1252 14.6667 15.4918 14.1167C15.6752 13.75 15.6752 13.3833 15.5835 13.0167C15.5835 13.0167 15.4002 12.925 15.2168 12.8333ZM17.5085 4.49167C13.9335 0.916675 8.1585 0.916675 4.5835 4.49167C1.65016 7.42501 1.10016 11.9167 3.11683 15.4917L1.8335 20.1667L6.69183 18.8833C8.06683 19.6167 9.5335 19.9833 11.0002 19.9833C16.0418 19.9833 20.0752 15.95 20.0752 10.9083C20.1668 8.52501 19.1585 6.23334 17.5085 4.49167ZM15.0335 17.325C13.8418 18.0583 12.4668 18.5167 11.0002 18.5167C9.62516 18.5167 8.34183 18.15 7.15016 17.5083L6.87516 17.325L4.0335 18.0583L4.76683 15.3083L4.5835 15.0333C2.3835 11.3667 3.4835 6.78334 7.0585 4.49167C10.6335 2.20001 15.2168 3.39167 17.4168 6.87501C19.6168 10.45 18.6085 15.125 15.0335 17.325Z" fill="#FDFEFF"/>
</svg>
