<svg width="22" height="22" viewBox="0 0 22 22" fill="none" xmlns="http://www.w3.org/2000/svg">
<path d="M3.90131 15.2109C2.87769 13.4839 2.51965 11.4427 2.89438 9.47041C3.26912 7.49814 4.35087 5.73047 5.93655 4.49926C7.52223 3.26804 9.50279 2.65794 11.5064 2.78351C13.51 2.90908 15.3989 3.76167 16.8185 5.18123C18.238 6.60078 19.0906 8.48968 19.2162 10.4933C19.3418 12.4969 18.7317 14.4775 17.5005 16.0632C16.2692 17.6489 14.5016 18.7306 12.5293 19.1053C10.557 19.4801 8.5158 19.122 6.78881 18.0984L3.93568 18.9062C3.81879 18.9404 3.69485 18.9425 3.57686 18.9123C3.45886 18.8822 3.35116 18.8208 3.26504 18.7347C3.17892 18.6486 3.11756 18.5409 3.08737 18.4229C3.05719 18.3049 3.05931 18.1809 3.09349 18.064L3.90131 15.2109Z" stroke="#FDFEFF" stroke-width="1.6" stroke-linecap="round" stroke-linejoin="round"/>
<path d="M11 12.0312C11.5695 12.0312 12.0312 11.5695 12.0312 11C12.0312 10.4305 11.5695 9.96875 11 9.96875C10.4305 9.96875 9.96875 10.4305 9.96875 11C9.96875 11.5695 10.4305 12.0312 11 12.0312Z" fill="#FDFEFF"/>
<path d="M6.875 12.0312C7.44454 12.0312 7.90625 11.5695 7.90625 11C7.90625 10.4305 7.44454 9.96875 6.875 9.96875C6.30546 9.96875 5.84375 10.4305 5.84375 11C5.84375 11.5695 6.30546 12.0312 6.875 12.0312Z" fill="#FDFEFF"/>
<path d="M15.125 12.0312C15.6945 12.0312 16.1562 11.5695 16.1562 11C16.1562 10.4305 15.6945 9.96875 15.125 9.96875C14.5555 9.96875 14.0938 10.4305 14.0938 11C14.0938 11.5695 14.5555 12.0312 15.125 12.0312Z" fill="#FDFEFF"/>
</svg>
