<svg width="85" height="36" viewBox="0 0 85 36" fill="none" xmlns="http://www.w3.org/2000/svg">
<g clip-path="url(#clip0_24_6885)">
<path fill-rule="evenodd" clip-rule="evenodd" d="M35.9261 18.0001C35.9261 15.7858 35.5074 13.6738 34.7775 11.7148C34.5844 18.1629 28.0441 23.1553 24.2043 26.459H33.8156C35.1591 23.9364 35.9261 21.0586 35.9261 18.0001ZM28.9779 3.80196C25.9347 1.42774 22.1191 0 17.9634 0C8.04259 0 0 8.05937 0 18.0001C0 27.9409 8.04259 36 17.9634 36C22.5063 36 26.6428 34.2967 29.8062 31.5094H16.8013L16.7617 27.6823C24.5976 20.8562 29.4011 16.2397 29.4011 11.7806C29.4011 10.1235 28.7712 8.03221 25.9365 8.03221C23.6917 8.03221 21.5263 9.33517 21.9199 14.7796H17.3527C16.2105 8.46712 19.6363 3.45549 26.172 3.45549C27.1853 3.45549 28.1226 3.57669 28.9779 3.80196Z" fill="#A3C400"/>
<path fill-rule="evenodd" clip-rule="evenodd" d="M52.5872 12.441H56.836C56.9812 9.20263 55.8923 4.0708 48.8837 4.0708C43.7264 4.0708 39.9858 7.16465 39.9858 13.6056C39.9858 14.479 40.0219 18.9914 40.0219 21.7934C40.0219 28.7812 44.8525 30.3092 48.9197 30.3092C51.3529 30.3092 54.8754 29.763 56.5094 27.9801V16.8443H48.52V20.8838H52.0793V25.7968C49.3916 26.7063 44.4888 27.0705 44.4888 20.8838V13.6056C44.4888 9.2749 46.4865 7.78307 48.7013 7.78307C50.9895 7.78307 52.5872 8.94763 52.5872 12.441ZM84.1916 23.2488C84.3729 13.2783 72.9705 16.5893 73.0787 11.0218C73.1148 9.05706 74.3861 7.78307 76.4567 7.78307C78.6717 7.78307 79.9781 9.0932 79.9421 12.5143H84.1185C84.2277 9.42048 83.5013 4.14409 76.602 4.14409C72.3163 4.14409 68.7941 6.25512 68.721 10.9492C68.5396 20.5194 80.0152 17.3902 79.8339 23.1765C79.7607 25.5418 78.0536 26.5969 76.1293 26.5969C73.8782 26.5969 72.0621 25.2868 72.4256 21.3567H68.212C67.7402 26.5608 70.0284 30.273 76.0933 30.273C81.2134 30.273 84.1185 27.4339 84.1916 23.2488Z" fill="#3B3B3B"/>
<path d="M60.7218 29.9447L65.0065 29.9447V4.47136H60.7218V29.9447Z" fill="#3B3B3B"/>
</g>
<defs>
<clipPath id="clip0_24_6885">
<rect width="84.1936" height="36" fill="white"/>
</clipPath>
</defs>
</svg>
