<svg width="196" height="196" viewBox="0 0 196 196" fill="none" xmlns="http://www.w3.org/2000/svg">
<path d="M58.7426 47.3867C59.3465 47.2794 59.9169 47.3277 60.4538 47.5317C60.9908 47.7357 61.4395 48.0868 61.8 48.5851C62.3505 49.346 62.5437 50.1802 62.3796 51.0877C62.2155 51.9951 61.7462 52.7305 60.9716 53.2938L56.8434 56.2961L49.9619 46.7838L53.7893 44.0002C54.5457 43.4501 55.3593 43.2386 56.2301 43.3657C57.11 43.4862 57.8154 43.9134 58.3462 44.6472C58.9623 45.4988 59.0944 46.4119 58.7426 47.3867ZM54.6446 45.1825L52.0884 47.0415L54.1922 49.9496L56.7484 48.0905C57.1494 47.7989 57.385 47.4132 57.4552 46.9336C57.5254 46.4539 57.413 46.0102 57.1181 45.6026C56.8298 45.2039 56.4427 44.967 55.9571 44.8916C55.474 44.8005 55.0365 44.8975 54.6446 45.1825ZM57.2594 54.1893L60.1163 52.1116C60.5446 51.8001 60.7964 51.3888 60.8718 50.8777C60.9471 50.3667 60.8275 49.8938 60.5129 49.4589C60.2049 49.0331 59.7924 48.7801 59.2754 48.6999C58.7766 48.6064 58.313 48.7154 57.8847 49.0269L55.0278 51.1046L57.2594 54.1893Z" fill="#1E87FA"/>
<path d="M73.5188 42.1482L76.18 35.0843L77.3036 34.7192L79.8463 42.7238L78.4659 43.1723L76.6809 37.5531L74.0197 44.617L72.8962 44.9821L70.3535 36.9776L71.7339 36.529L73.5188 42.1482Z" fill="#1E87FA"/>
<path d="M97.4784 30.9899L97.4754 38.0109L98.6372 38.0019L98.6356 41.6555L97.1876 41.6667L97.1885 39.4105L90.8745 39.4592L90.8736 41.7153L89.4256 41.7264L89.4271 38.0729L90.4542 38.0649C90.9933 37.32 91.2632 36.2796 91.2638 34.9439L91.2654 31.0378L97.4784 30.9899ZM92.1211 38.0521L96.0274 38.022L96.0298 32.3649L92.7129 32.3904L92.7118 34.9328C92.7112 36.1675 92.5143 37.2072 92.1211 38.0521Z" fill="#1E87FA"/>
<path d="M117.893 38.5324L111.169 36.4515C111.084 37.2025 111.234 37.8612 111.618 38.4277C112.006 38.9834 112.585 39.3805 113.355 39.6189C114.414 39.9467 115.309 39.7936 116.038 39.1596L117.012 40.2028C115.836 41.1698 114.467 41.4116 112.905 40.9282C111.643 40.5375 110.731 39.8195 110.169 38.7742C109.636 37.714 109.561 36.578 109.945 35.366C110.333 34.1433 111.042 33.2559 112.075 32.704C113.111 32.1412 114.249 32.0519 115.49 32.436C116.667 32.8002 117.492 33.5148 117.965 34.5798C118.456 35.6267 118.514 36.7401 118.14 37.9199C118.076 38.1237 117.993 38.3278 117.893 38.5324ZM115.072 33.7552C114.334 33.5268 113.647 33.5439 113.012 33.8066C112.387 34.0725 111.902 34.5466 111.557 35.2288L116.917 36.8876C117.033 36.1111 116.921 35.4462 116.579 34.893C116.238 34.3397 115.735 33.9605 115.072 33.7552Z" fill="#1E87FA"/>
<path d="M132.757 48.1443C131.567 48.3571 130.464 48.1075 129.448 47.3956C128.431 46.6837 127.821 45.734 127.618 44.5464C127.415 43.3589 127.673 42.2538 128.394 41.2312C129.114 40.2087 130.068 39.591 131.258 39.3783C132.447 39.1656 133.55 39.4152 134.567 40.1271C135.583 40.839 136.193 41.7887 136.396 42.9763C136.602 44.1794 136.348 45.2877 135.634 46.3011C134.921 47.3144 133.961 47.9288 132.757 48.1443ZM130.275 46.221C130.962 46.702 131.704 46.8712 132.502 46.7284C133.3 46.5857 133.946 46.1642 134.439 45.4641C134.932 44.764 135.111 44.0154 134.974 43.2185C134.838 42.4216 134.426 41.7827 133.739 41.3017C133.062 40.8271 132.324 40.6611 131.526 40.8039C130.728 40.9466 130.082 41.3681 129.589 42.0682C129.096 42.7683 128.917 43.5168 129.054 44.3138C129.19 45.1107 129.597 45.7464 130.275 46.221Z" fill="#1E87FA"/>
<path d="M152.21 68.9127C151.058 68.5624 150.193 67.8377 149.615 66.7388C149.037 65.6399 148.928 64.5132 149.287 63.3587C149.647 62.2043 150.379 61.3335 151.482 60.7462C152.586 60.159 153.714 60.0406 154.865 60.391C156.017 60.7413 156.882 61.466 157.46 62.5649C158.038 63.6638 158.147 64.7905 157.788 65.9449C157.423 67.1146 156.694 67.9904 155.6 68.5723C154.507 69.1542 153.377 69.2677 152.21 68.9127ZM150.883 66.0643C151.273 66.8068 151.855 67.2956 152.628 67.5307C153.401 67.7658 154.165 67.6824 154.921 67.2803C155.676 66.8783 156.175 66.2899 156.416 65.5152C156.658 64.7405 156.583 63.9819 156.192 63.2394C155.807 62.5068 155.228 62.0229 154.455 61.7878C153.682 61.5527 152.918 61.6362 152.162 62.0382C151.407 62.4403 150.908 63.0286 150.667 63.8033C150.425 64.578 150.497 65.3317 150.883 66.0643Z" fill="#1E87FA"/>
<path d="M163.767 94.7353L167.268 94.6447L167.294 96.1091L158.877 96.3268L158.851 94.8625L162.369 94.7715L162.292 90.412L158.774 90.5031L158.748 89.0387L167.165 88.821L167.191 90.2853L163.689 90.3759L163.767 94.7353Z" fill="#1E87FA"/>
<path d="M163.709 115.718L165.096 116.125L164.673 117.531L156.613 115.167L157.035 113.761L158.422 114.168C157.565 113.166 157.339 111.992 157.744 110.645C158.088 109.503 158.786 108.659 159.839 108.112C160.906 107.558 162.031 107.454 163.213 107.8C164.385 108.144 165.264 108.836 165.852 109.876C166.44 110.916 166.564 112.001 166.224 113.132C165.819 114.479 164.981 115.341 163.709 115.718ZM159.045 111.22C158.799 112.039 158.867 112.804 159.25 113.514C159.654 114.23 160.26 114.707 161.066 114.943C161.882 115.183 162.647 115.108 163.361 114.719C164.085 114.334 164.57 113.732 164.816 112.913C165.059 112.105 164.984 111.344 164.59 110.631C164.207 109.921 163.607 109.446 162.791 109.206C161.985 108.97 161.214 109.043 160.479 109.425C159.766 109.814 159.288 110.412 159.045 111.22Z" fill="#1E87FA"/>
<path d="M148.667 134.724L154.203 138.997L153.303 140.159L146.664 135.036L153.756 125.884L160.395 131.007L159.494 132.169L153.958 127.897L151.762 130.729L157.299 135.002L156.398 136.164L150.862 131.892L148.667 134.724Z" fill="#1E87FA"/>
<path d="M132.707 152.578L138.718 148.836C138.206 148.285 137.608 147.972 136.926 147.896C136.25 147.83 135.567 148.011 134.878 148.44C133.931 149.029 133.457 149.805 133.456 150.768L132.024 150.829C132.068 149.313 132.788 148.12 134.184 147.251C135.313 146.549 136.458 146.323 137.62 146.575C138.774 146.858 139.683 147.537 140.347 148.612C141.017 149.697 141.22 150.809 140.957 151.948C140.699 153.096 140.016 154.015 138.906 154.706C137.854 155.361 136.769 155.522 135.651 155.191C134.535 154.884 133.654 154.208 133.007 153.161C132.896 152.98 132.795 152.786 132.707 152.578ZM138.184 153.535C138.844 153.125 139.284 152.594 139.504 151.943C139.715 151.298 139.676 150.624 139.388 149.921L134.596 152.903C135.107 153.495 135.684 153.84 136.328 153.94C136.972 154.039 137.591 153.905 138.184 153.535Z" fill="#1E87FA"/>
<path d="M118.884 165.65L123.291 164.5L123.605 165.738L119.198 166.888L118.884 165.65ZM121.467 157.578L118.395 164.475L117.252 164.774L115.188 156.629L116.591 156.263L118.041 161.98L121.113 155.082L122.255 154.784L124.32 162.929L122.916 163.295L121.467 157.578Z" fill="#1E87FA"/>
<path d="M91.4905 163.041L88.226 158.017L90.0118 158.346L93.0288 162.964L93.7817 159.039L95.2203 159.304L93.6318 167.584L92.1933 167.319L92.8954 163.66L88.6218 166.662L86.7699 166.321L91.4905 163.041Z" fill="#1E87FA"/>
<path d="M75.1207 163.634L69.546 160.861L73.3445 153.317L74.6517 153.967L71.4914 160.244L74.4515 161.716L76.0013 158.638C76.6091 157.431 77.2825 156.691 78.0216 156.417C78.7557 156.153 79.5658 156.299 80.4518 156.853L79.8288 158.09C79.3434 157.76 78.8995 157.684 78.4971 157.861C78.0897 158.048 77.6884 158.534 77.2934 159.319L75.1207 163.634Z" fill="#1E87FA"/>
<path d="M61.4689 149.602L54.0142 150.715L53.1619 149.908L58.9766 143.773L60.0237 144.765L55.9418 149.071L63.3965 147.958L64.2488 148.766L58.4341 154.901L57.387 153.909L61.4689 149.602Z" fill="#1E87FA"/>
<path d="M43.7407 133.143L40.6699 134.852L39.9656 133.573L47.3475 129.466L48.0517 130.745L44.9661 132.462L47.0627 136.268L50.1483 134.551L50.8526 135.83L43.4707 139.937L42.7664 138.659L45.8373 136.95L43.7407 133.143Z" fill="#1E87FA"/>
<path d="M39.5484 119.163L32.8297 115.821L32.5955 114.667L40.8464 112.928L41.134 114.345L35.3419 115.566L42.0606 118.908L42.2948 120.061L34.0439 121.801L33.7563 120.384L39.5484 119.163Z" fill="#1E87FA"/>
<path d="M34.8707 99.078L39.5347 95.2437L39.3887 97.0574L35.1028 100.598L39.0804 100.886L38.9628 102.347L30.5713 101.739L30.6889 100.278L34.398 100.547L30.981 96.6511L31.1324 94.7702L34.8707 99.078Z" fill="#1E87FA"/>
<path d="M39.756 77.6695L37.2495 84.2842C37.9939 84.405 38.6611 84.2869 39.2513 83.93C39.8309 83.5692 40.2643 83.01 40.5514 82.2522C40.9462 81.2102 40.8504 80.31 40.2639 79.5515L41.3676 78.6292C42.2581 79.849 42.4123 81.2272 41.83 82.7638C41.3595 84.0057 40.5844 84.8822 39.5049 85.3933C38.4123 85.8755 37.2732 85.8961 36.0876 85.4551C34.8914 85.0102 34.0507 84.2592 33.5653 83.2021C33.0695 82.1412 33.0529 81.0002 33.5155 79.7794C33.9542 78.6217 34.7203 77.8319 35.8139 77.4101C36.8905 76.97 38.0059 76.9646 39.1601 77.3938C39.3595 77.468 39.5581 77.5599 39.756 77.6695ZM34.8061 80.2594C34.5309 80.9856 34.5042 81.6721 34.726 82.319C34.9518 82.9553 35.3942 83.4621 36.0534 83.8393L38.0513 78.5665C37.2835 78.413 36.6125 78.4936 36.0383 78.8084C35.4641 79.1232 35.0534 79.6069 34.8061 80.2594Z" fill="#1E87FA"/>
</svg>
