<svg width="62" height="62" viewBox="0 0 62 62" fill="none" xmlns="http://www.w3.org/2000/svg">
<path d="M7.75 11.9552L31.0111 5.16669L54.25 11.9552V25.8769C54.25 40.5095 44.8857 52.2084 31.0034 56.834C17.1173 52.2085 7.75 40.5067 7.75 25.8704V11.9552Z" stroke="#1E87FA" stroke-width="3" stroke-linejoin="round"/>
<path d="M30.9998 29.7084C34.5667 29.7084 37.4582 26.8169 37.4582 23.25C37.4582 19.6832 34.5667 16.7917 30.9998 16.7917C27.433 16.7917 24.5415 19.6832 24.5415 23.25C24.5415 26.8169 27.433 29.7084 30.9998 29.7084Z" stroke="#1E87FA" stroke-width="3" stroke-linecap="round" stroke-linejoin="round"/>
<path d="M41.3332 40.0416C41.3332 34.3347 36.7068 29.7083 30.9998 29.7083C25.2929 29.7083 20.6665 34.3347 20.6665 40.0416" stroke="#1E87FA" stroke-width="3" stroke-linecap="round" stroke-linejoin="round"/>
</svg>
