<svg width="125" height="36" viewBox="0 0 125 36" fill="none" xmlns="http://www.w3.org/2000/svg">
<g clip-path="url(#clip0_24_6933)">
<path d="M118.834 31.3472C121.279 31.3472 123.011 30.9057 124.302 29.9547V25.6415C122.977 26.5585 121.381 27.1359 119.139 27.1359C115.369 27.1359 113.807 24.2151 113.807 19.5962C113.807 14.7396 115.709 12.2604 119.173 12.2604C121.211 12.2604 123.215 12.9736 124.268 13.6529V9.16983C123.147 8.55851 121.211 8.117 118.562 8.117C111.803 8.117 108.305 12.9736 108.305 19.7661C108.339 27.2038 111.769 31.3472 118.834 31.3472ZM85.7883 29.3774V25.0642C84.1581 26.1849 81.3732 27.1698 78.8261 27.1698C74.9544 27.1698 73.494 25.3359 73.2562 21.6H86.0261V18.8151C86.0261 11.0378 82.5959 8.117 77.3317 8.117C70.8789 8.117 67.8223 13.0415 67.8223 19.8C67.8223 27.5774 71.66 31.3472 78.3846 31.3472C81.7468 31.3472 84.2261 30.4302 85.7883 29.3774ZM37.3242 8.52455V17.3547H30.26V8.52455H24.9619V30.9057H30.26V21.5661H37.3242V30.9057H42.6223V8.52455H37.3242ZM66.4978 26.6944H64.1544V8.52455H48.7355V10.4264C48.7355 15.8944 48.3959 22.9585 46.528 26.6944H44.8298V36H49.7204V30.9057H61.5732V36H66.4638V26.6944H66.4978ZM102.668 30.9057H108.679L100.188 18.8491L107.66 8.52455H102.328L94.8562 18.8491V8.52455H89.5581V30.9057H94.8562V19.9019L102.668 30.9057ZM77.1959 12.2604C79.811 12.2604 80.6261 14.434 80.6261 17.2529V17.6944H73.2562C73.3921 14.1283 74.6827 12.2604 77.1959 12.2604ZM58.8563 26.6944H51.3846C52.8449 23.3321 53.2525 17.2189 53.2525 13.3472V12.6679H58.8563V26.6944Z" fill="black"/>
<path d="M20.5472 30.9057H15.1472V4.17736H12.7358C8.32075 4.17736 6.01132 6.38491 6.01132 9.67924C6.01132 13.4151 7.60755 15.1472 10.9019 17.3547L13.6189 19.1887L5.80755 30.9057H0L7.03019 20.4453C2.98868 17.5585 0.713207 14.7396 0.713207 9.98491C0.713207 4.04151 4.8566 0 12.7019 0H20.5132L20.5472 30.9057Z" fill="#FC3F1D"/>
</g>
<defs>
<clipPath id="clip0_24_6933">
<rect width="124.642" height="36" fill="white"/>
</clipPath>
</defs>
</svg>
