<svg width="197" height="201" viewBox="0 0 197 201" fill="none" xmlns="http://www.w3.org/2000/svg">
<g filter="url(#filter0_d_914_17769)">
<circle cx="98" cy="98.0003" r="83" fill="#FDFEFF"/>
</g>
<g filter="url(#filter1_d_914_17769)">
<circle cx="98" cy="98.0001" r="78.5" stroke="#1E87FA" stroke-dasharray="3 3" shape-rendering="crispEdges"/>
</g>
<path d="M118.2 96.3982L88.5166 78.2458C88.2667 78.0917 87.9802 78.007 87.6867 78.0005C87.3932 77.994 87.1032 78.0659 86.8468 78.2089C86.5903 78.3518 86.3767 78.5606 86.2278 78.8136C86.079 79.0667 86.0003 79.3549 86 79.6485V115.953C86.0003 116.247 86.079 116.535 86.2278 116.788C86.3767 117.041 86.5903 117.25 86.8468 117.393C87.1032 117.536 87.3932 117.608 87.6867 117.601C87.9802 117.595 88.2667 117.51 88.5166 117.356L118.2 99.2036C118.444 99.0594 118.646 98.8543 118.786 98.6083C118.926 98.3623 119 98.084 119 97.8009C119 97.5177 118.926 97.2394 118.786 96.9935C118.646 96.7475 118.444 96.5423 118.2 96.3982Z" fill="#1E87FA"/>
<path d="M59.7426 47.3867C60.3465 47.2794 60.9169 47.3277 61.4538 47.5317C61.9908 47.7357 62.4395 48.0868 62.8 48.5851C63.3505 49.346 63.5437 50.1802 63.3796 51.0877C63.2155 51.9951 62.7462 52.7305 61.9716 53.2938L57.8434 56.2961L50.9619 46.7838L54.7893 44.0002C55.5457 43.4501 56.3593 43.2386 57.2301 43.3657C58.11 43.4862 58.8154 43.9134 59.3462 44.6472C59.9623 45.4988 60.0944 46.4119 59.7426 47.3867ZM55.6446 45.1825L53.0884 47.0415L55.1922 49.9496L57.7484 48.0905C58.1494 47.7989 58.385 47.4132 58.4552 46.9336C58.5254 46.4539 58.413 46.0102 58.1181 45.6026C57.8298 45.2039 57.4427 44.967 56.9571 44.8916C56.474 44.8005 56.0365 44.8975 55.6446 45.1825ZM58.2594 54.1893L61.1163 52.1116C61.5446 51.8001 61.7964 51.3888 61.8718 50.8777C61.9471 50.3667 61.8275 49.8938 61.5129 49.4589C61.2049 49.0331 60.7924 48.7801 60.2754 48.6999C59.7766 48.6064 59.313 48.7154 58.8847 49.0269L56.0278 51.1046L58.2594 54.1893Z" fill="#1E87FA"/>
<path d="M74.5188 42.1482L77.18 35.0843L78.3036 34.7192L80.8463 42.7238L79.4659 43.1723L77.6809 37.5531L75.0197 44.617L73.8962 44.9821L71.3535 36.9776L72.7339 36.529L74.5188 42.1482Z" fill="#1E87FA"/>
<path d="M98.4784 30.9899L98.4754 38.0109L99.6372 38.0019L99.6356 41.6555L98.1876 41.6667L98.1885 39.4106L91.8745 39.4592L91.8736 41.7153L90.4256 41.7264L90.4271 38.0729L91.4542 38.0649C91.9933 37.32 92.2632 36.2796 92.2638 34.9439L92.2654 31.0378L98.4784 30.9899ZM93.1211 38.0521L97.0274 38.022L97.0298 32.3649L93.7129 32.3904L93.7118 34.9328C93.7112 36.1675 93.5143 37.2072 93.1211 38.0521Z" fill="#1E87FA"/>
<path d="M118.893 38.5324L112.169 36.4515C112.084 37.2025 112.234 37.8612 112.618 38.4277C113.006 38.9834 113.585 39.3805 114.355 39.6189C115.414 39.9467 116.309 39.7936 117.038 39.1596L118.012 40.2028C116.836 41.1698 115.467 41.4116 113.905 40.9282C112.643 40.5375 111.731 39.8195 111.169 38.7742C110.636 37.714 110.561 36.578 110.945 35.366C111.333 34.1433 112.042 33.2559 113.075 32.704C114.111 32.1412 115.249 32.0519 116.49 32.436C117.667 32.8002 118.492 33.5148 118.965 34.5798C119.456 35.6267 119.514 36.7401 119.14 37.9199C119.076 38.1237 118.993 38.3278 118.893 38.5324ZM116.072 33.7552C115.334 33.5268 114.647 33.5439 114.012 33.8066C113.387 34.0725 112.902 34.5466 112.557 35.2288L117.917 36.8876C118.033 36.1111 117.921 35.4462 117.579 34.893C117.238 34.3397 116.735 33.9605 116.072 33.7552Z" fill="#1E87FA"/>
<path d="M133.757 48.1443C132.567 48.3571 131.464 48.1075 130.448 47.3956C129.431 46.6837 128.821 45.734 128.618 44.5464C128.415 43.3589 128.673 42.2538 129.394 41.2312C130.114 40.2087 131.068 39.591 132.258 39.3783C133.447 39.1656 134.55 39.4152 135.567 40.1271C136.583 40.839 137.193 41.7887 137.396 42.9763C137.602 44.1794 137.348 45.2877 136.634 46.3011C135.921 47.3144 134.961 47.9288 133.757 48.1443ZM131.275 46.221C131.962 46.702 132.704 46.8712 133.502 46.7284C134.3 46.5857 134.946 46.1642 135.439 45.4641C135.932 44.764 136.111 44.0154 135.974 43.2185C135.838 42.4216 135.426 41.7827 134.739 41.3017C134.062 40.8271 133.324 40.6611 132.526 40.8039C131.728 40.9466 131.082 41.3681 130.589 42.0682C130.096 42.7683 129.917 43.5168 130.054 44.3138C130.19 45.1107 130.597 45.7464 131.275 46.221Z" fill="#1E87FA"/>
<path d="M153.21 68.9127C152.058 68.5624 151.193 67.8377 150.615 66.7388C150.037 65.6399 149.928 64.5132 150.287 63.3587C150.647 62.2043 151.379 61.3335 152.482 60.7462C153.586 60.159 154.714 60.0406 155.865 60.391C157.017 60.7413 157.882 61.466 158.46 62.5649C159.038 63.6638 159.147 64.7905 158.788 65.9449C158.423 67.1146 157.694 67.9904 156.6 68.5723C155.507 69.1542 154.377 69.2677 153.21 68.9127ZM151.883 66.0643C152.273 66.8068 152.855 67.2956 153.628 67.5307C154.401 67.7658 155.165 67.6824 155.921 67.2803C156.676 66.8783 157.175 66.2899 157.416 65.5152C157.658 64.7405 157.583 63.9819 157.192 63.2394C156.807 62.5068 156.228 62.0229 155.455 61.7878C154.682 61.5527 153.918 61.6362 153.162 62.0382C152.407 62.4403 151.908 63.0286 151.667 63.8033C151.425 64.578 151.497 65.3317 151.883 66.0643Z" fill="#1E87FA"/>
<path d="M164.767 94.7353L168.268 94.6447L168.294 96.1091L159.877 96.3268L159.851 94.8625L163.369 94.7715L163.292 90.412L159.774 90.5031L159.748 89.0387L168.165 88.821L168.191 90.2853L164.689 90.3759L164.767 94.7353Z" fill="#1E87FA"/>
<path d="M164.709 115.718L166.096 116.125L165.673 117.531L157.613 115.167L158.035 113.761L159.422 114.168C158.565 113.166 158.339 111.992 158.744 110.645C159.088 109.503 159.786 108.659 160.839 108.112C161.906 107.558 163.031 107.454 164.213 107.8C165.385 108.144 166.264 108.836 166.852 109.876C167.44 110.916 167.564 112.001 167.224 113.132C166.819 114.479 165.981 115.341 164.709 115.718ZM160.045 111.22C159.799 112.039 159.867 112.804 160.25 113.514C160.654 114.23 161.26 114.707 162.066 114.943C162.882 115.183 163.647 115.108 164.361 114.719C165.085 114.334 165.57 113.732 165.816 112.913C166.059 112.105 165.984 111.344 165.59 110.631C165.207 109.921 164.607 109.446 163.791 109.206C162.985 108.97 162.214 109.043 161.479 109.425C160.766 109.814 160.288 110.412 160.045 111.22Z" fill="#1E87FA"/>
<path d="M149.667 134.724L155.203 138.997L154.303 140.159L147.664 135.036L154.756 125.884L161.395 131.007L160.494 132.169L154.958 127.897L152.762 130.729L158.299 135.002L157.398 136.164L151.862 131.892L149.667 134.724Z" fill="#1E87FA"/>
<path d="M133.707 152.578L139.718 148.836C139.206 148.285 138.608 147.972 137.926 147.896C137.25 147.83 136.567 148.011 135.878 148.44C134.931 149.029 134.457 149.805 134.456 150.768L133.024 150.829C133.068 149.313 133.788 148.12 135.184 147.251C136.313 146.549 137.458 146.323 138.62 146.575C139.774 146.858 140.683 147.537 141.347 148.612C142.017 149.697 142.22 150.809 141.957 151.948C141.699 153.096 141.016 154.015 139.906 154.706C138.854 155.361 137.769 155.522 136.651 155.191C135.535 154.884 134.654 154.208 134.007 153.161C133.896 152.98 133.795 152.786 133.707 152.578ZM139.184 153.535C139.844 153.125 140.284 152.594 140.504 151.943C140.715 151.298 140.676 150.624 140.388 149.921L135.596 152.903C136.107 153.495 136.684 153.84 137.328 153.94C137.972 154.039 138.591 153.905 139.184 153.535Z" fill="#1E87FA"/>
<path d="M119.884 165.65L124.291 164.5L124.605 165.738L120.198 166.888L119.884 165.65ZM122.467 157.578L119.395 164.475L118.252 164.774L116.188 156.629L117.591 156.263L119.041 161.98L122.113 155.082L123.255 154.784L125.32 162.929L123.916 163.295L122.467 157.578Z" fill="#1E87FA"/>
<path d="M92.4905 163.041L89.226 158.017L91.0118 158.346L94.0288 162.964L94.7817 159.039L96.2203 159.304L94.6318 167.584L93.1933 167.319L93.8954 163.66L89.6218 166.662L87.7699 166.321L92.4905 163.041Z" fill="#1E87FA"/>
<path d="M76.1207 163.634L70.546 160.861L74.3445 153.317L75.6517 153.967L72.4914 160.244L75.4515 161.716L77.0013 158.638C77.6091 157.431 78.2825 156.691 79.0216 156.417C79.7557 156.153 80.5658 156.299 81.4518 156.853L80.8288 158.09C80.3434 157.76 79.8995 157.684 79.4971 157.861C79.0897 158.048 78.6884 158.534 78.2934 159.319L76.1207 163.634Z" fill="#1E87FA"/>
<path d="M62.4689 149.602L55.0142 150.715L54.1619 149.908L59.9766 143.773L61.0237 144.765L56.9418 149.071L64.3965 147.958L65.2488 148.766L59.4341 154.901L58.387 153.909L62.4689 149.602Z" fill="#1E87FA"/>
<path d="M44.7407 133.143L41.6699 134.852L40.9656 133.573L48.3475 129.466L49.0517 130.745L45.9661 132.462L48.0627 136.268L51.1483 134.551L51.8526 135.83L44.4707 139.937L43.7664 138.659L46.8373 136.95L44.7407 133.143Z" fill="#1E87FA"/>
<path d="M40.5484 119.163L33.8297 115.821L33.5955 114.667L41.8464 112.928L42.134 114.345L36.342 115.566L43.0606 118.908L43.2948 120.061L35.0439 121.801L34.7563 120.384L40.5484 119.163Z" fill="#1E87FA"/>
<path d="M35.8707 99.078L40.5347 95.2437L40.3887 97.0574L36.1028 100.598L40.0804 100.886L39.9628 102.347L31.5713 101.739L31.6889 100.278L35.398 100.547L31.981 96.6511L32.1324 94.7702L35.8707 99.078Z" fill="#1E87FA"/>
<path d="M40.756 77.6695L38.2495 84.2842C38.9939 84.405 39.6611 84.2869 40.2513 83.93C40.8309 83.5692 41.2643 83.01 41.5514 82.2522C41.9462 81.2102 41.8504 80.31 41.2639 79.5515L42.3676 78.6292C43.2581 79.849 43.4123 81.2272 42.83 82.7638C42.3595 84.0057 41.5844 84.8822 40.5049 85.3933C39.4123 85.8755 38.2732 85.8961 37.0876 85.4551C35.8914 85.0102 35.0507 84.2592 34.5653 83.2021C34.0695 82.1412 34.0529 81.0002 34.5155 79.7794C34.9542 78.6217 35.7203 77.8319 36.8139 77.4101C37.8905 76.97 39.0059 76.9646 40.1601 77.3938C40.3595 77.468 40.5581 77.5599 40.756 77.6695ZM35.8061 80.2594C35.5309 80.9856 35.5042 81.6721 35.726 82.319C35.9518 82.9553 36.3942 83.4621 37.0534 83.8393L39.0513 78.5665C38.2835 78.413 37.6125 78.4936 37.0383 78.8084C36.4641 79.1232 36.0534 79.6069 35.8061 80.2594Z" fill="#1E87FA"/>
<defs>
<filter id="filter0_d_914_17769" x="0" y="5.00032" width="196" height="196" filterUnits="userSpaceOnUse" color-interpolation-filters="sRGB">
<feFlood flood-opacity="0" result="BackgroundImageFix"/>
<feColorMatrix in="SourceAlpha" type="matrix" values="0 0 0 0 0 0 0 0 0 0 0 0 0 0 0 0 0 0 127 0" result="hardAlpha"/>
<feOffset dy="5"/>
<feGaussianBlur stdDeviation="7.5"/>
<feComposite in2="hardAlpha" operator="out"/>
<feColorMatrix type="matrix" values="0 0 0 0 0.117647 0 0 0 0 0.529412 0 0 0 0 0.980392 0 0 0 0.07 0"/>
<feBlend mode="normal" in2="BackgroundImageFix" result="effect1_dropShadow_914_17769"/>
<feBlend mode="normal" in="SourceGraphic" in2="effect1_dropShadow_914_17769" result="shape"/>
</filter>
<filter id="filter1_d_914_17769" x="4" y="9.00008" width="188" height="188" filterUnits="userSpaceOnUse" color-interpolation-filters="sRGB">
<feFlood flood-opacity="0" result="BackgroundImageFix"/>
<feColorMatrix in="SourceAlpha" type="matrix" values="0 0 0 0 0 0 0 0 0 0 0 0 0 0 0 0 0 0 127 0" result="hardAlpha"/>
<feOffset dy="5"/>
<feGaussianBlur stdDeviation="7.5"/>
<feComposite in2="hardAlpha" operator="out"/>
<feColorMatrix type="matrix" values="0 0 0 0 0.117647 0 0 0 0 0.529412 0 0 0 0 0.980392 0 0 0 0.07 0"/>
<feBlend mode="normal" in2="BackgroundImageFix" result="effect1_dropShadow_914_17769"/>
<feBlend mode="normal" in="SourceGraphic" in2="effect1_dropShadow_914_17769" result="shape"/>
</filter>
</defs>
</svg>
