<svg width="182" height="48" viewBox="0 0 182 48" fill="none" xmlns="http://www.w3.org/2000/svg">
<path d="M71.481 13.8145H182" stroke="#1E87FA" stroke-width="1.5"/>
<path d="M182 45.1013H2V24.3789H15.0023" stroke="#1E87FA" stroke-width="1.5"/>
<path d="M19.8782 45.1018V9.75195H40.6005V45.1018" stroke="#1E87FA" stroke-width="1.5"/>
<path d="M43.0383 27.6298H59.2912V44.6953" stroke="#1E87FA" stroke-width="1.5"/>
<path d="M8.90747 31.6934V38.1945" stroke="#1E87FA" stroke-width="1.5"/>
<path d="M47.9143 31.6934V38.1945" stroke="#1E87FA" stroke-width="1.5"/>
<path d="M12.158 31.6934V38.1945" stroke="#1E87FA" stroke-width="1.5"/>
<path d="M30.0361 16.2528V22.7539" stroke="#1E87FA" stroke-width="1.5"/>
<path d="M51.1648 31.6934V38.1945" stroke="#1E87FA" stroke-width="1.5"/>
<path d="M54.4153 31.6934V38.1945" stroke="#1E87FA" stroke-width="1.5"/>
<path d="M30.0361 0C30.0361 0.325056 30.0361 4.46953 30.0361 6.50113" stroke="#1E87FA" stroke-width="2"/>
<path d="M26.7856 3.25098H33.2868" stroke="#1E87FA" stroke-width="2"/>
<path d="M86.436 22.1358V37.0655H83.8726V24.1866H77.2383V37.0655H74.6748V22.1358H86.436Z" fill="#1E87FA"/>
<path d="M95.2031 31.4976H91.3169V29.4571H95.2031C95.8799 29.4571 96.4268 29.3477 96.8438 29.1289C97.2607 28.9102 97.5649 28.6094 97.7563 28.2266C97.9546 27.8369 98.0537 27.3926 98.0537 26.8936C98.0537 26.4219 97.9546 25.981 97.7563 25.5708C97.5649 25.1538 97.2607 24.8189 96.8438 24.5659C96.4268 24.313 95.8799 24.1866 95.2031 24.1866H92.1064V37.0655H89.5327V22.1358H95.2031C96.3584 22.1358 97.3394 22.3409 98.146 22.751C98.9595 23.1543 99.5781 23.7149 100.002 24.4326C100.426 25.1436 100.638 25.9571 100.638 26.8731C100.638 27.8369 100.426 28.6641 100.002 29.3545C99.5781 30.045 98.9595 30.5747 98.146 30.9439C97.3394 31.313 96.3584 31.4976 95.2031 31.4976Z" fill="#1E87FA"/>
<path d="M114.85 29.1905V30.0108C114.85 31.1387 114.703 32.1504 114.409 33.0459C114.115 33.9414 113.694 34.7036 113.147 35.3326C112.607 35.9615 111.958 36.4434 111.199 36.7784C110.44 37.1065 109.6 37.2705 108.677 37.2705C107.761 37.2705 106.923 37.1065 106.165 36.7784C105.413 36.4434 104.76 35.9615 104.206 35.3326C103.652 34.7036 103.222 33.9414 102.914 33.0459C102.613 32.1504 102.463 31.1387 102.463 30.0108V29.1905C102.463 28.0625 102.613 27.0542 102.914 26.1656C103.215 25.2701 103.639 24.5078 104.186 23.8789C104.739 23.2432 105.392 22.7613 106.144 22.4331C106.903 22.0982 107.74 21.9307 108.656 21.9307C109.579 21.9307 110.42 22.0982 111.179 22.4331C111.938 22.7613 112.59 23.2432 113.137 23.8789C113.684 24.5078 114.104 25.2701 114.398 26.1656C114.699 27.0542 114.85 28.0625 114.85 29.1905ZM112.276 30.0108V29.17C112.276 28.336 112.194 27.6011 112.03 26.9654C111.873 26.3228 111.637 25.7862 111.322 25.3555C111.015 24.918 110.635 24.5899 110.184 24.3711C109.733 24.1455 109.224 24.0327 108.656 24.0327C108.089 24.0327 107.583 24.1455 107.139 24.3711C106.694 24.5899 106.315 24.918 106 25.3555C105.693 25.7862 105.457 26.3228 105.293 26.9654C105.129 27.6011 105.047 28.336 105.047 29.17V30.0108C105.047 30.8448 105.129 31.583 105.293 32.2256C105.457 32.8682 105.696 33.4117 106.011 33.856C106.332 34.2935 106.715 34.625 107.159 34.8506C107.604 35.0694 108.109 35.1787 108.677 35.1787C109.251 35.1787 109.76 35.0694 110.205 34.8506C110.649 34.625 111.025 34.2935 111.333 33.856C111.64 33.4117 111.873 32.8682 112.03 32.2256C112.194 31.583 112.276 30.8448 112.276 30.0108Z" fill="#1E87FA"/>
<path d="M122.837 23.5406H125.77C126.652 23.5406 127.462 23.6875 128.2 23.9815C128.945 24.2754 129.595 24.6924 130.148 25.2325C130.702 25.7657 131.133 26.4082 131.44 27.1602C131.748 27.9053 131.902 28.7359 131.902 29.6519C131.902 30.5542 131.748 31.378 131.44 32.1231C131.133 32.8682 130.702 33.5108 130.148 34.0508C129.595 34.584 128.945 34.9942 128.2 35.2813C127.462 35.5684 126.652 35.7119 125.77 35.7119H122.837C121.962 35.7119 121.152 35.5684 120.407 35.2813C119.662 34.9942 119.009 34.584 118.449 34.0508C117.895 33.5176 117.464 32.8819 117.157 32.1436C116.856 31.3985 116.706 30.5747 116.706 29.6724C116.706 28.7564 116.856 27.9258 117.157 27.1807C117.464 26.4287 117.895 25.7827 118.449 25.2427C119.009 24.6958 119.662 24.2754 120.407 23.9815C121.152 23.6875 121.962 23.5406 122.837 23.5406ZM122.837 25.5913C122.072 25.5913 121.412 25.7554 120.858 26.0835C120.305 26.4048 119.877 26.8697 119.577 27.4781C119.283 28.0865 119.136 28.8179 119.136 29.6724C119.136 30.3013 119.221 30.8618 119.392 31.354C119.563 31.8462 119.809 32.2632 120.13 32.605C120.452 32.9468 120.841 33.21 121.299 33.3946C121.757 33.5791 122.27 33.6714 122.837 33.6714H125.791C126.549 33.6714 127.202 33.5108 127.749 33.1895C128.296 32.8614 128.716 32.3965 129.01 31.795C129.311 31.1934 129.461 30.479 129.461 29.6519C129.461 29.0161 129.376 28.4488 129.205 27.9497C129.041 27.4439 128.798 27.0166 128.477 26.668C128.163 26.3194 127.78 26.0528 127.329 25.8682C126.877 25.6836 126.365 25.5913 125.791 25.5913H122.837ZM125.544 21.5205V37.6807H123.073V21.5205H125.544Z" fill="#1E87FA"/>
<path d="M135.204 22.1358H137.5L141.817 33.6509L146.124 22.1358H148.421L142.72 37.0655H140.895L135.204 22.1358ZM134.158 22.1358H136.342L136.721 32.1026V37.0655H134.158V22.1358ZM147.283 22.1358H149.477V37.0655H146.903V32.1026L147.283 22.1358Z" fill="#1E87FA"/>
<path d="M162.305 35.0249V37.0655H154.378V35.0249H162.305ZM155.106 22.1358V37.0655H152.533V22.1358H155.106ZM161.269 28.3701V30.3799H154.378V28.3701H161.269ZM162.253 22.1358V24.1866H154.378V22.1358H162.253Z" fill="#1E87FA"/>
<path d="M176.199 35.0249V37.0655H165.196V35.0249H176.199ZM165.832 35.0249V40.7364H163.371L163.279 35.0249H165.832ZM178.188 35.0249L178.034 40.7261H175.614V35.0249H178.188ZM174.394 22.1358V24.1866H167.503V22.1358H174.394ZM176.363 22.1358V37.0655H173.799V22.1358H176.363ZM166.991 22.1358H169.564L169.206 28.1856C169.151 29.1426 169.052 30.0039 168.908 30.7696C168.765 31.5352 168.59 32.2222 168.385 32.8306C168.187 33.4322 167.961 33.9654 167.708 34.4302C167.456 34.8882 167.186 35.2847 166.898 35.6197C166.611 35.9546 166.317 36.2417 166.017 36.481C165.723 36.7134 165.432 36.9082 165.145 37.0655H163.771V35.0249H164.438C164.622 34.854 164.827 34.6079 165.053 34.2867C165.278 33.9585 165.497 33.5313 165.709 33.0049C165.928 32.4717 166.119 31.812 166.283 31.0259C166.447 30.2398 166.56 29.293 166.622 28.1856L166.991 22.1358Z" fill="#1E87FA"/>
</svg>
