<svg width="24" height="30" viewBox="0 0 24 30" fill="none" xmlns="http://www.w3.org/2000/svg">
<path fill-rule="evenodd" clip-rule="evenodd" d="M12 29.625C12 29.625 23.25 21.75 23.25 11.625C23.25 8.64131 22.0647 5.77983 19.955 3.67005C17.8452 1.56026 14.9837 0.375 12 0.375C9.01631 0.375 6.15483 1.56026 4.04505 3.67005C1.93526 5.77983 0.75 8.64131 0.75 11.625C0.75 21.75 12 29.625 12 29.625ZM16.5 11.625C16.5 14.1103 14.4853 16.125 12 16.125C9.51472 16.125 7.5 14.1103 7.5 11.625C7.5 9.13972 9.51472 7.125 12 7.125C14.4853 7.125 16.5 9.13972 16.5 11.625Z" fill="#1E87FA"/>
</svg>
