<svg width="42" height="42" viewBox="0 0 42 42" fill="none" xmlns="http://www.w3.org/2000/svg">
<path d="M21.0406 12.4272C22.4877 12.4272 23.6682 13.6077 23.6682 15.0547C23.6682 16.5018 22.4877 17.6822 21.0406 17.6822C19.5937 17.6822 18.4132 16.5018 18.4132 15.0547C18.375 13.6077 19.5556 12.4272 21.0406 12.4272Z" fill="#1E87FA"/>
<path fill-rule="evenodd" clip-rule="evenodd" d="M21 0C9.40202 0 0 9.40202 0 21C0 32.598 9.40202 42 21 42C32.598 42 42 32.598 42 21C42 9.40202 32.598 0 21 0ZM21.0406 21.414C24.5441 21.414 27.4001 18.5581 27.4001 15.0547C27.4001 11.5513 24.5441 8.69531 21.0406 8.69531C17.4992 8.69531 14.6432 11.5513 14.6432 15.0547C14.6432 18.5581 17.4992 21.414 21.0406 21.414ZM23.5921 26.6311C24.8868 26.3265 26.1434 25.8314 27.2858 25.108C28.1617 24.5747 28.4282 23.3944 27.857 22.5185C27.324 21.6426 26.1434 21.3761 25.2676 21.9473C22.6781 23.5848 19.289 23.5848 16.6996 21.9473C15.8237 21.4142 14.6813 21.6426 14.1101 22.5185C13.6151 23.3944 13.8816 24.5367 14.7575 25.0698C15.8999 25.7934 17.1565 26.2883 18.4513 26.593L14.9098 30.1345C14.1863 30.8581 14.1863 32.0385 14.9098 32.7621C15.2906 33.1429 15.7476 33.2952 16.2426 33.2952C16.7377 33.2952 17.1946 33.1048 17.5754 32.7621L21.0788 29.2586L24.5823 32.7621C25.3057 33.4856 26.4863 33.4856 27.2097 32.7621C27.9332 32.0385 27.9332 30.8581 27.2097 30.1345L23.5921 26.6311Z" fill="#1E87FA"/>
</svg>
