<svg width="42" height="42" viewBox="0 0 42 42" fill="none" xmlns="http://www.w3.org/2000/svg">
<circle cx="21" cy="21" r="20.25" stroke="#1E87FA" stroke-width="1.5"/>
<path d="M17.3945 20.6751C18.2306 22.4017 19.6268 23.7942 21.3555 24.6259C21.483 24.6863 21.624 24.7124 21.7647 24.7017C21.9054 24.691 22.0409 24.6439 22.1578 24.5649L24.6969 22.8688C24.8091 22.7928 24.9387 22.7463 25.0737 22.7339C25.2086 22.7215 25.3446 22.7434 25.4688 22.7978L30.2219 24.8392C30.3843 24.9068 30.52 25.0259 30.6081 25.1782C30.6962 25.3305 30.7318 25.5076 30.7094 25.6821C30.5587 26.858 29.9848 27.9386 29.095 28.7219C28.2052 29.5051 27.0604 29.9373 25.875 29.9376C22.2117 29.9376 18.6984 28.4824 16.1081 25.892C13.5177 23.3017 12.0625 19.7884 12.0625 16.1251C12.0628 14.9397 12.495 13.7949 13.2782 12.9051C14.0615 12.0153 15.1421 11.4414 16.318 11.2907C16.4925 11.2683 16.6695 11.3039 16.8219 11.392C16.9742 11.4801 17.0933 11.6158 17.1609 11.7782L19.2023 16.5415C19.2554 16.6637 19.2776 16.7971 19.267 16.93C19.2564 17.0628 19.2133 17.191 19.1414 17.3032L17.4453 19.8829C17.3698 19.9996 17.3255 20.1337 17.3166 20.2724C17.3077 20.4111 17.3345 20.5497 17.3945 20.6751V20.6751Z" stroke="#1E87FA" stroke-width="1.5" stroke-linecap="round" stroke-linejoin="round"/>
</svg>
