<svg width="42" height="42" viewBox="0 0 42 42" fill="none" xmlns="http://www.w3.org/2000/svg">
<path d="M21 11.8125V14.4375" stroke="#1E87FA" stroke-width="2" stroke-linecap="round" stroke-linejoin="round"/>
<path d="M21 27.5625V30.1875" stroke="#1E87FA" stroke-width="2" stroke-linecap="round" stroke-linejoin="round"/>
<path d="M21 36.75C29.6985 36.75 36.75 29.6985 36.75 21C36.75 12.3015 29.6985 5.25 21 5.25C12.3015 5.25 5.25 12.3015 5.25 21C5.25 29.6985 12.3015 36.75 21 36.75Z" stroke="#1E87FA" stroke-width="2" stroke-linecap="round" stroke-linejoin="round"/>
<path d="M17.0625 27.5625H22.9688C23.839 27.5625 24.6736 27.2168 25.2889 26.6014C25.9043 25.9861 26.25 25.1515 26.25 24.2812C26.25 23.411 25.9043 22.5764 25.2889 21.9611C24.6736 21.3457 23.839 21 22.9688 21H19.0312C18.161 21 17.3264 20.6543 16.7111 20.0389C16.0957 19.4236 15.75 18.589 15.75 17.7188C15.75 16.8485 16.0957 16.0139 16.7111 15.3986C17.3264 14.7832 18.161 14.4375 19.0312 14.4375H24.9375" stroke="#1E87FA" stroke-width="2" stroke-linecap="round" stroke-linejoin="round"/>
</svg>
