<svg width="42" height="42" viewBox="0 0 42 42" fill="none" xmlns="http://www.w3.org/2000/svg">
<g clip-path="url(#clip0_386_19337)">
<path d="M42 0H0V42H42V0Z" fill="white" fill-opacity="0.01"/>
<path d="M36.75 7H5.25C4.2835 7 3.5 7.7835 3.5 8.75V36.75C3.5 37.7165 4.2835 38.5 5.25 38.5H36.75C37.7165 38.5 38.5 37.7165 38.5 36.75V8.75C38.5 7.7835 37.7165 7 36.75 7Z" stroke="#1E87FA" stroke-width="2" stroke-linecap="round" stroke-linejoin="round"/>
<path d="M3.5 17.5H38.5" stroke="#1E87FA" stroke-width="2" stroke-linecap="round" stroke-linejoin="round"/>
<path d="M3.5 28H38.5" stroke="#1E87FA" stroke-width="2" stroke-linecap="round" stroke-linejoin="round"/>
<path d="M14.875 3.5V10.5" stroke="#1E87FA" stroke-width="2" stroke-linecap="round" stroke-linejoin="round"/>
<path d="M27.125 3.5V10.5" stroke="#1E87FA" stroke-width="2" stroke-linecap="round" stroke-linejoin="round"/>
<path d="M14.875 17.5V38.5" stroke="#1E87FA" stroke-width="2" stroke-linecap="round" stroke-linejoin="round"/>
<path d="M27.125 17.5V38.5" stroke="#1E87FA" stroke-width="2" stroke-linecap="round" stroke-linejoin="round"/>
<path d="M38.5 11.375V34.125" stroke="#1E87FA" stroke-width="2" stroke-linecap="round" stroke-linejoin="round"/>
<path d="M3.5 11.375V34.125" stroke="#1E87FA" stroke-width="2" stroke-linecap="round" stroke-linejoin="round"/>
<path d="M12.25 38.5H29.75" stroke="#1E87FA" stroke-width="2" stroke-linecap="round" stroke-linejoin="round"/>
</g>
<defs>
<clipPath id="clip0_386_19337">
<rect width="42" height="42" fill="white"/>
</clipPath>
</defs>
</svg>
