<svg width="36" height="36" viewBox="0 0 36 36" fill="none" xmlns="http://www.w3.org/2000/svg">
<path fill-rule="evenodd" clip-rule="evenodd" d="M24.0823 5.92567C23.7565 4.86945 22.8296 4 21.3955 4C20.7344 4 20.1813 4.13813 19.738 4.41649C19.2899 4.6979 19.0106 5.08725 18.8415 5.48977C18.5598 6.16051 18.5687 6.93568 18.5738 7.38093C18.5744 7.43412 18.575 7.48261 18.575 7.52564V30.7942C18.575 30.8311 18.5778 30.868 18.5833 30.9033C18.6319 31.2179 18.8884 31.4639 19.208 31.4964C19.2317 31.4988 19.2558 31.5 19.2801 31.5C20.7701 31.5 21.8562 30.8204 22.4083 29.829L22.4255 29.7977C22.898 29.9057 23.3931 29.9037 23.8779 29.7975C24.4538 29.6715 24.9991 29.4023 25.4699 29.0219C25.9408 28.6416 26.328 28.1576 26.6001 27.6124C26.8509 27.1097 26.9995 26.5636 27.0309 26.0134C27.5343 25.9328 28.0161 25.7473 28.4448 25.4678C28.9464 25.1408 29.3597 24.6952 29.6482 24.1704C29.9367 23.6457 30.0915 23.0579 30.0988 22.4592C30.1061 21.8605 29.9657 21.2693 29.6899 20.738C29.5481 20.4647 29.3727 20.2116 29.1686 19.9842C29.492 19.6942 29.7607 19.3412 29.9618 18.9467C30.2147 18.4506 30.3558 17.8992 30.3744 17.3399C30.3931 16.7805 30.2889 16.2242 30.0659 15.72C29.8428 15.2154 29.5058 14.7748 29.0772 14.4441C28.8888 14.2987 28.6858 14.177 28.4721 14.0812C28.759 13.5607 28.9588 12.985 29.0637 12.3818C29.2079 11.5529 29.17 10.6908 28.9549 9.86982C28.7398 9.04886 28.3523 8.28724 27.821 7.6538C27.2894 7.02015 26.6267 6.53052 25.8855 6.23871C25.3063 6.01068 24.6955 5.9101 24.0878 5.94395L24.0823 5.92567ZM25.0781 18.2912C25.6389 18.3065 26.1869 18.1717 26.6689 17.8933C27.0062 17.6985 27.1216 17.2672 26.9268 16.93C26.7321 16.5928 26.3008 16.4773 25.9636 16.6721C25.7143 16.8161 25.425 16.8899 25.1166 16.8814C24.8072 16.873 24.4842 16.7816 24.1781 16.6044C23.8718 16.427 23.5962 16.1713 23.3806 15.8567C23.1649 15.5421 23.0199 15.1841 22.9574 14.8169C22.892 14.433 22.5279 14.1747 22.144 14.2401C21.76 14.3054 21.5018 14.6696 21.5671 15.0535C21.6643 15.6245 21.8879 16.1734 22.2174 16.6541C22.5468 17.1347 22.9759 17.5379 23.4714 17.8248C23.9672 18.1119 24.5183 18.2759 25.0781 18.2912ZM22.5211 19.8759C22.6644 19.5138 22.487 19.104 22.1249 18.9607C21.7628 18.8174 21.3531 18.9947 21.2098 19.3568C21.077 19.6922 21.0324 20.0555 21.0887 20.4132C21.1452 20.7712 21.2998 21.1033 21.5347 21.3785C21.769 21.6531 22.072 21.8582 22.4098 21.9836C22.7749 22.1192 23.1807 21.9331 23.3163 21.568C23.4518 21.2029 23.2657 20.7971 22.9006 20.6615C22.7748 20.6148 22.6765 20.544 22.6074 20.463C22.5388 20.3826 22.4971 20.2906 22.4818 20.1936C22.4664 20.0962 22.4769 19.9875 22.5211 19.8759ZM25.4834 10.7881C25.3049 10.5309 25.0611 10.3265 24.7719 10.1998C24.4152 10.0435 23.9994 10.206 23.8431 10.5627C23.6868 10.9194 23.8493 11.3353 24.206 11.4915C24.249 11.5104 24.2904 11.5426 24.3249 11.5922C24.3599 11.6427 24.3887 11.713 24.3984 11.8019C24.4082 11.891 24.3978 11.9912 24.3627 12.0916C24.3277 12.1921 24.2713 12.283 24.2011 12.3557C24.131 12.4283 24.0537 12.4758 23.9814 12.5011C23.6138 12.6298 23.4201 13.0321 23.5488 13.3996C23.6774 13.7672 24.0797 13.9609 24.4473 13.8322C24.7394 13.7299 25.0015 13.5569 25.2153 13.3355C25.4292 13.1142 25.5928 12.8469 25.6942 12.5563C25.7956 12.2659 25.8339 11.9546 25.8003 11.6482C25.7666 11.3415 25.6613 11.0444 25.4834 10.7881ZM21.6264 26.1911C21.7698 25.8291 21.5924 25.4193 21.2303 25.276C20.8682 25.1327 20.4585 25.31 20.3152 25.6721C20.1824 26.0075 20.1378 26.3708 20.1941 26.7285C20.2506 27.0865 20.4052 27.4186 20.6401 27.6938C20.8744 27.9684 21.1774 28.1735 21.5152 28.2989C21.8803 28.4345 22.2861 28.2484 22.4216 27.8833C22.5572 27.5182 22.3711 27.1124 22.006 26.9768C21.8802 26.9301 21.7819 26.8593 21.7127 26.7783C21.6442 26.6979 21.6025 26.6059 21.5872 26.5089C21.5718 26.4115 21.5822 26.3028 21.6264 26.1911ZM22.8047 24.4719C22.7882 24.0828 23.0902 23.754 23.4793 23.7375C23.8121 23.7234 24.1192 23.6344 24.376 23.4871C24.632 23.3402 24.8307 23.1398 24.9623 22.9081C25.0936 22.6769 25.1588 22.4136 25.1495 22.1379C25.1364 21.7487 25.4414 21.4226 25.8306 21.4095C26.2198 21.3964 26.5459 21.7014 26.559 22.0906C26.5768 22.6224 26.4504 23.1437 26.1885 23.6048C25.9268 24.0654 25.5426 24.4436 25.0778 24.7103C24.6137 24.9766 24.0843 25.1234 23.539 25.1465C23.15 25.163 22.8212 24.861 22.8047 24.4719ZM22.2896 8.43605C22.6769 8.39549 22.958 8.04862 22.9174 7.66131C22.8768 7.27399 22.53 6.9929 22.1427 7.03347C21.7839 7.07104 21.4412 7.19964 21.1503 7.41516C20.859 7.63094 20.6362 7.92168 20.501 8.25732C20.3661 8.59213 20.3245 8.95569 20.3697 9.31312C20.4186 9.69948 20.7714 9.97307 21.1577 9.92421C21.5441 9.87536 21.8177 9.52255 21.7688 9.13619C21.752 9.00305 21.7693 8.88311 21.8091 8.78432C21.8486 8.68636 21.9109 8.60678 21.9897 8.54834C22.069 8.48964 22.1701 8.44856 22.2896 8.43605Z" fill="#1E87FA"/>
<path fill-rule="evenodd" clip-rule="evenodd" d="M6.66064 14.4441C6.84905 14.2987 7.05201 14.177 7.26572 14.0812C6.97885 13.5607 6.77911 12.985 6.67416 12.3818C6.52995 11.5529 6.56791 10.6908 6.78299 9.86982C6.99807 9.04886 7.38553 8.28724 7.9169 7.6538C8.44846 7.02015 9.11113 6.53052 9.85235 6.23871C10.4316 6.01068 11.0424 5.9101 11.65 5.94395C11.9704 4.88081 12.8985 4 14.3424 4C15.0035 4 15.5566 4.13813 15.9998 4.41649C16.4479 4.6979 16.7273 5.08725 16.8963 5.48977C17.178 6.16051 17.1691 6.93568 17.164 7.38093C17.1634 7.43393 17.1629 7.48274 17.1629 7.52564V30.7935C17.1629 31.1829 16.8472 31.5 16.4578 31.5C14.9678 31.5 13.8817 30.8204 13.3296 29.829L13.3124 29.7977C12.8398 29.9057 12.3448 29.9037 11.8601 29.7975C11.2842 29.6715 10.7388 29.4023 10.268 29.0219C9.79714 28.6416 9.40989 28.1576 9.13783 27.6124C8.88697 27.1097 8.73845 26.5636 8.70697 26.0134C8.20364 25.9328 7.72176 25.7473 7.29308 25.4678C6.79148 25.1408 6.37813 24.6952 6.08963 24.1704C5.80113 23.6457 5.64635 23.0579 5.63904 22.4592C5.63174 21.8605 5.77214 21.2693 6.04791 20.738C6.18976 20.4647 6.36517 20.2116 6.56929 19.9842C6.24587 19.6942 5.97718 19.3412 5.77605 18.9467C5.52314 18.4506 5.38211 17.8992 5.36346 17.3399C5.3448 16.7805 5.44894 16.2242 5.67193 15.72C5.89505 15.2154 6.23211 14.7748 6.66064 14.4441ZM12.0816 17.9942C11.523 18.0466 10.9673 17.9483 10.468 17.7023C10.1186 17.5303 9.9749 17.1076 10.147 16.7582C10.319 16.4089 10.7417 16.2651 11.0911 16.4372C11.3493 16.5644 11.6429 16.6189 11.95 16.5901C12.2581 16.5612 12.5745 16.4487 12.8682 16.2516C13.1621 16.0544 13.4202 15.781 13.6145 15.4528C13.8089 15.1247 13.93 14.7579 13.9681 14.3873C14.0061 14.0168 13.9595 13.6604 13.841 13.3489C13.7025 12.985 13.8853 12.5776 14.2493 12.4392C14.6133 12.3007 15.0206 12.4835 15.1591 12.8475C15.3604 13.3766 15.4301 13.9552 15.3709 14.5315C15.3117 15.1077 15.1249 15.6702 14.8279 16.1716C14.5309 16.6729 14.1294 17.1036 13.654 17.4226C13.1783 17.7419 12.6392 17.9419 12.0816 17.9942ZM14.8274 25.7612C15.2169 25.7608 15.5322 25.4447 15.5318 25.0553C15.5314 24.6659 15.2153 24.3505 14.8259 24.3509C14.2801 24.3515 13.7451 24.4764 13.2704 24.7233C12.795 24.9705 12.3956 25.3325 12.1151 25.782C11.8344 26.2318 11.6865 26.7475 11.6824 27.2796C11.6794 27.669 11.9926 27.9871 12.3821 27.9901C12.7715 27.9931 13.0896 27.6799 13.0926 27.2905C13.0947 27.0146 13.1707 26.7542 13.3115 26.5286C13.4525 26.3026 13.6593 26.1106 13.9212 25.9744C14.1838 25.8378 14.4943 25.7615 14.8274 25.7612ZM8.85197 20.4578C8.85636 20.8472 9.17559 21.1593 9.565 21.1549C9.68509 21.1535 9.7903 21.1827 9.87578 21.2318C9.96089 21.2808 10.0319 21.3526 10.0824 21.4454C10.1334 21.5389 10.1644 21.6561 10.1631 21.7903C10.1591 22.1797 10.4716 22.4986 10.861 22.5025C11.2504 22.5065 11.5693 22.194 11.5732 21.8046C11.5769 21.4443 11.4936 21.088 11.321 20.771C11.148 20.4532 10.8931 20.1901 10.5789 20.0094C10.2651 19.8289 9.90982 19.7407 9.5491 19.7447C9.15969 19.7491 8.84758 20.0684 8.85197 20.4578ZM14.9114 22.2511C15.2672 22.0928 15.4272 21.676 15.2688 21.3202C15.1104 20.9644 14.6936 20.8044 14.3379 20.9628C14.0667 21.0835 13.8296 21.2721 13.6551 21.5172C13.4804 21.7626 13.3793 22.0495 13.3587 22.3486C13.3383 22.6468 13.3987 22.9419 13.5243 23.2084C13.6902 23.5607 14.1104 23.7117 14.4627 23.5457C14.815 23.3798 14.966 22.9597 14.8 22.6074C14.7709 22.5454 14.7626 22.4895 14.7657 22.4452C14.7687 22.4017 14.7825 22.3653 14.8039 22.3352C14.8256 22.3047 14.86 22.274 14.9114 22.2511ZM10.363 9.94809C10.6661 9.87008 10.9842 9.87465 11.2859 9.96772C11.6581 10.0825 11.8667 10.4773 11.7519 10.8494C11.6371 11.2215 11.2423 11.4301 10.8702 11.3153C10.8253 11.3015 10.7729 11.2988 10.7144 11.3138C10.6549 11.3292 10.5872 11.3636 10.5218 11.4245C10.4561 11.4856 10.3985 11.5682 10.3594 11.6672C10.3203 11.7661 10.3036 11.8718 10.3092 11.9726C10.3149 12.0734 10.3423 12.1598 10.3805 12.2263C10.5747 12.5639 10.4584 12.995 10.1208 13.1891C9.78323 13.3833 9.35217 13.267 9.15802 12.9294C9.0037 12.6611 8.9184 12.3589 8.90117 12.0516C8.88394 11.7443 8.9348 11.435 9.04789 11.1488C9.16097 10.8627 9.33538 10.6021 9.56106 10.3921C9.78695 10.1819 10.0608 10.0258 10.363 9.94809ZM13.6994 8.39228C13.3121 8.35172 13.031 8.00485 13.0716 7.61754C13.1121 7.23023 13.459 6.94913 13.8463 6.9897C14.1551 7.02204 14.4513 7.13288 14.7035 7.3197C14.956 7.50679 15.149 7.75877 15.2659 8.04904C15.3825 8.33847 15.418 8.65144 15.3793 8.95754C15.3304 9.34389 14.9776 9.61749 14.5912 9.56863C14.2049 9.51977 13.9313 9.16696 13.9801 8.78061C13.9905 8.6988 13.9793 8.62945 13.9578 8.57604C13.9366 8.52345 13.9042 8.48263 13.864 8.45288C13.8235 8.42287 13.7688 8.39955 13.6994 8.39228Z" fill="#1E87FA"/>
</svg>
