<svg width="36" height="36" viewBox="0 0 36 36" fill="none" xmlns="http://www.w3.org/2000/svg">
<path fill-rule="evenodd" clip-rule="evenodd" d="M10.7483 24.1032C11.0602 24.415 11.0602 24.9207 10.7483 25.2326L6.11027 29.8706C5.79839 30.1825 5.29274 30.1825 4.98086 29.8706C4.66899 29.5587 4.66899 29.0531 4.98086 28.7412L9.61889 24.1032C9.93077 23.7913 10.4364 23.7913 10.7483 24.1032Z" fill="#1E87FA"/>
<path fill-rule="evenodd" clip-rule="evenodd" d="M26.3274 5.53381C26.2193 4.75063 27.1685 4.27886 27.7275 4.83788L30.0135 7.12384C30.5725 7.68289 30.1007 8.63211 29.3175 8.52396C29.1169 8.49625 28.9308 8.40376 28.7876 8.26056L28.2539 7.72686L26.5598 9.42096L29.9481 12.8092C30.2599 13.1211 30.2599 13.6267 29.9481 13.9386C29.6362 14.2505 29.1305 14.2505 28.8186 13.9386L28.2539 13.3739L16.9599 24.668C16.2223 25.4056 15.1233 25.5617 14.2328 25.1363L14.1364 25.2327C12.8889 26.4802 10.8662 26.4802 9.61874 25.2327C8.37123 23.9851 8.37123 21.9625 9.61874 20.715L9.71514 20.6186C9.28971 19.7281 9.44581 18.6291 10.1834 17.8915L21.4775 6.59745L20.9128 6.03274C20.6009 5.72087 20.6009 5.21521 20.9128 4.90334C21.2247 4.59146 21.7303 4.59146 22.0422 4.90334L23.1715 6.03262L25.4304 8.29155L27.1245 6.59745L26.5908 6.06375C26.4476 5.92053 26.3551 5.73444 26.3274 5.53381ZM22.6069 7.72685L18.0893 12.2445L22.6069 16.7621L27.1245 12.2445L22.6069 7.72685ZM10.7481 21.8444C10.1244 22.4682 10.1244 23.4795 10.7481 24.1033C11.3719 24.727 12.3832 24.727 13.007 24.1033L10.7481 21.8444Z" fill="#1E87FA"/>
</svg>
