<svg width="36" height="36" viewBox="0 0 36 36" fill="none" xmlns="http://www.w3.org/2000/svg">
<path d="M29.1676 15.2188L25.5113 2.80158C25.4415 2.56901 25.2983 2.36526 25.1032 2.22079C24.908 2.07632 24.6713 1.99887 24.4285 2.00001H10.9285C10.6857 1.99887 10.449 2.07632 10.2538 2.22079C10.0587 2.36526 9.9155 2.56901 9.84569 2.80158L6.18944 15.2188C5.87764 16.2504 5.95263 17.3603 6.40038 18.3406C7.30318 20.3351 8.71837 22.0547 10.5019 23.3244C12.2853 24.5941 14.3734 25.3685 16.5535 25.5688V31.25H12.0535C11.7551 31.25 11.469 31.3685 11.258 31.5795C11.047 31.7905 10.9285 32.0766 10.9285 32.375C10.9285 32.6734 11.047 32.9595 11.258 33.1705C11.469 33.3815 11.7551 33.5 12.0535 33.5H23.3035C23.6019 33.5 23.888 33.3815 24.099 33.1705C24.31 32.9595 24.4285 32.6734 24.4285 32.375C24.4285 32.0766 24.31 31.7905 24.099 31.5795C23.888 31.3685 23.6019 31.25 23.3035 31.25H18.8035V25.5688C20.9836 25.3685 23.0717 24.5941 24.8552 23.3244C26.6386 22.0547 28.0538 20.3351 28.9566 18.3406C29.4044 17.3603 29.4794 16.2504 29.1676 15.2188ZM18.1848 13.3625C14.5004 11.5344 11.5473 11.5344 9.48006 12.0266L11.7723 4.25001H23.5848L26.5098 14.1641C25.0051 14.7969 22.1504 15.3453 18.1848 13.3625Z" fill="#1E87FA"/>
</svg>
