<svg width="42" height="42" viewBox="0 0 42 42" fill="none" xmlns="http://www.w3.org/2000/svg">
<path d="M14.042 16.891C14.154 22.351 16.884 25.627 21.672 25.627H21.952V22.505C23.709 22.68 25.039 23.968 25.571 25.627H28.056C27.8011 24.6843 27.3493 23.8063 26.7303 23.051C26.1113 22.2956 25.3393 21.6801 24.465 21.245C25.2484 20.7679 25.925 20.1344 26.4526 19.384C26.9801 18.6337 27.3472 17.7826 27.531 16.884H25.277C24.787 18.62 23.331 20.195 21.952 20.342V16.891H19.691V22.939C18.291 22.589 16.527 20.895 16.45 16.891H14.042Z" fill="#1E87FA"/>
<path fill-rule="evenodd" clip-rule="evenodd" d="M21 0C32.598 0 42 9.40202 42 21C42 32.598 32.598 42 21 42C9.40202 42 0 32.598 0 21C0 9.40202 9.40202 0 21 0ZM10.5 20.58C10.5 15.827 10.5 13.454 11.97 11.97C13.461 10.5 15.834 10.5 20.58 10.5H21.42C26.173 10.5 28.546 10.5 30.03 11.97C31.5 13.461 31.5 15.834 31.5 20.58V21.42C31.5 26.173 31.5 28.546 30.03 30.03C28.539 31.5 26.166 31.5 21.42 31.5H20.58C15.827 31.5 13.454 31.5 11.97 30.03C10.5 28.539 10.5 26.166 10.5 21.42V20.58Z" fill="#1E87FA"/>
</svg>
