<svg width="48" height="48" viewBox="0 0 48 48" fill="none" xmlns="http://www.w3.org/2000/svg">
<g clip-path="url(#clip0_378_10788)">
<path d="M48 0H0V48H48V0Z" fill="white" fill-opacity="0.01"/>
<path d="M24 44C29.5228 44 34.5228 41.7614 38.1421 38.1421C41.7614 34.5228 44 29.5228 44 24C44 18.4772 41.7614 13.4772 38.1421 9.85786C34.5228 6.23858 29.5228 4 24 4C18.4772 4 13.4772 6.23858 9.85786 9.85786C6.23858 13.4772 4 18.4772 4 24C4 29.5228 6.23858 34.5228 9.85786 38.1421C13.4772 41.7614 18.4772 44 24 44Z" fill="#1E87FA"/>
<path d="M26.25 34.5C26.25 35.7426 25.2426 36.75 24 36.75C22.7574 36.75 21.75 35.7426 21.75 34.5C21.75 33.2574 22.7574 32.25 24 32.25C25.2426 32.25 26.25 33.2574 26.25 34.5Z" fill="#FDFEFF" stroke="#FDFEFF" stroke-width="0.5"/>
<path d="M24 12V28Z" fill="#FDFEFF"/>
<path d="M24 12V28" stroke="#FDFEFF" stroke-width="3" stroke-linecap="round" stroke-linejoin="round"/>
</g>
<defs>
<clipPath id="clip0_378_10788">
<rect width="48" height="48" fill="white"/>
</clipPath>
</defs>
</svg>
